<?xml version="1.0" encoding="UTF-8"?>
<!DOCTYPE svg PUBLIC "-//W3C//DTD SVG 1.1//EN" "http://www.w3.org/Graphics/SVG/1.1/DTD/svg11.dtd">
<!-- Creator: CorelDRAW -->
<svg xmlns="http://www.w3.org/2000/svg" xml:space="preserve" width="210mm" height="210mm" version="1.1" style="shape-rendering:geometricPrecision; text-rendering:geometricPrecision; image-rendering:optimizeQuality; fill-rule:evenodd; clip-rule:evenodd"
viewBox="0 0 21000 21000"
 xmlns:xlink="http://www.w3.org/1999/xlink"
 xmlns:xodm="http://www.corel.com/coreldraw/odm/2003">
 <defs>
  <style type="text/css">
   <![CDATA[
    .fil4 {fill:#5F5E5E;fill-rule:nonzero}
    .fil2 {fill:#ED9435;fill-rule:nonzero}
    .fil1 {fill:#EEB638;fill-rule:nonzero}
    .fil3 {fill:#EED439;fill-rule:nonzero}
    .fil0 {fill:#E17C2C;fill-rule:nonzero}
   ]]>
  </style>
 </defs>
 <g id="圖層_x0020_1">
  <metadata id="CorelCorpID_0Corel-Layer"/>
  <polygon class="fil0" points="5282.02,14328.64 10146.52,4025.4 7905.52,4025.4 3043.61,14328.64 "/>
  <polygon class="fil1" points="12801.48,14337.81 7905.51,4025.38 10146.52,4025.38 15042.63,14337.81 "/>
  <polygon class="fil2" points="12119.48,14328.64 15144.8,7937.37 12903.64,7937.37 9901.27,14328.64 "/>
  <polygon class="fil3" points="15904.84,14328.66 12903.64,7937.35 15144.8,7937.35 18147.17,14328.66 "/>
  <path class="fil1" d="M7491.32 3942.77l-5007.91 10411.22c-13.97,29.01 -48.77,41.39 -77.93,27.31 -29.04,-13.97 -41.27,-48.85 -27.3,-77.93l5004.29 -10403.7 108.85 43.1z"/>
  <path class="fil1" d="M8101.88 3442.43l2408.36 0c22.49,0 43,12.94 52.69,33.23l1911.79 4006.27 3050.67 0c22.67,0 43.31,13.14 52.91,33.68l3170.03 6788.39c13.62,29.17 0.99,63.96 -28.2,77.58 -8.01,3.7 -16.38,5.47 -24.67,5.47 -21.99,0 -43.03,-12.42 -52.94,-33.69l-3154.3 -6754.66 -3050.32 0c-22.51,0 -42.99,-12.95 -52.69,-33.25l-1911.79 -4006.28 -2367.73 0 -3.81 -116.74z"/>
  <g id="_105553232942016">
   <path class="fil1" d="M7296.5 2962.81c-213.56,133.43 -277.93,412.16 -144.5,625.72 133.42,213.56 498.34,384.74 756.96,354.57 123.88,-238.02 146.7,-622.21 13.26,-835.78 -133.42,-213.56 -412.16,-277.93 -625.72,-144.51zm328.71 526.13c-85.61,53.49 -199.41,27.21 -252.9,-58.4 -53.49,-85.61 -27.19,-199.4 58.42,-252.89 85.6,-53.49 199.4,-27.22 252.89,58.39 53.48,85.61 27.2,199.42 -58.41,252.9z" p-id="5496"/>
  </g>
  <path class="fil4" d="M2790.78 17707.47l435.06 0 455.41 -1512.58 -370.02 0 -170.77 689.2c-42.7,162.65 -75.22,319.19 -117.91,483.86l-10.18 0c-44.71,-164.67 -73.17,-321.21 -117.9,-483.86l-172.81 -689.2 -384.25 0 453.37 1512.58zm1745.97 28.46c402.53,0 605.84,-229.73 605.84,-740.03l0 -801.01 -349.67 0 0 839.65c0,286.65 -91.5,388.3 -256.17,388.3 -166.7,0 -252.09,-101.65 -252.09,-388.3l0 -839.65 -361.89 0 0 801.01c0,510.3 209.4,740.03 613.98,740.03zm1038.48 -28.46l981.94 0 0 -304.95 -618.03 0 0 -321.23 506.22 0 0 -304.95 -506.22 0 0 -280.55 595.68 0 0 -300.9 -959.59 0 0 1512.58zm7046.51 0l951.44 0 0 -304.95 -587.54 0 0 -1207.63 -363.9 0 0 1512.58zm1306.83 0l363.91 0 0 -1512.58 -363.91 0 0 1512.58zm804.69 0l571.27 0c329.36,0 591.61,-138.24 591.61,-447.26 0,-201.28 -115.89,-315.13 -268.36,-355.79l0 -8.14c121.99,-46.75 197.2,-193.13 197.2,-327.3 0,-290.74 -250.06,-374.09 -563.15,-374.09l-528.57 0 0 1512.58zm363.9 -912.83l0 -323.25 150.44 0c152.48,0 223.63,44.72 223.63,152.48 0,103.67 -69.12,170.77 -223.63,170.77l-150.44 0zm0 634.31l0 -365.95 180.94 0c176.87,0 264.29,48.79 264.29,172.8 0,130.12 -89.44,193.15 -264.29,193.15l-180.94 0zm1506.08 -947.4l162.63 0c172.82,0 264.31,46.77 264.31,189.07 0,142.31 -91.49,217.54 -264.31,217.54l-162.63 0 0 -406.61zm859.97 1225.92l-337.48 -599.75c156.54,-73.18 260.22,-215.49 260.22,-437.1 0,-365.95 -268.36,-475.73 -591.61,-475.73l-555.01 0 0 1512.58 363.91 0 0 -532.65 174.83 0 278.54 532.65 406.6 0zm308.62 0l981.95 0 0 -304.95 -618.04 0 0 -321.23 506.22 0 0 -304.95 -506.22 0 0 -280.55 595.68 0 0 -300.9 -959.59 0 0 1512.58zm-10895.87 -461.49l575.34 0 0 -254.13 -575.34 0 0 254.13z"/>
  <path class="fil2" d="M7820.92 17707.47l325.28 0 0 -518.42c0,-150.45 -28.46,-376.12 -46.76,-524.52l8.12 0 122 361.87 205.33 552.99 199.23 0 203.31 -552.99 126.05 -361.87 8.13 0c-18.31,148.4 -46.77,374.07 -46.77,524.52l0 518.42 331.39 0 0 -1512.58 -394.4 0 -231.78 652.61c-28.46,87.42 -52.85,182.97 -83.35,276.48l-10.16 0c-28.46,-93.51 -52.85,-189.06 -83.35,-276.48l-239.9 -652.61 -392.37 0 0 1512.58zm2211.54 -628.22l32.53 -128.06c38.62,-150.46 79.28,-327.32 115.87,-485.9l8.14 0c40.66,154.51 79.28,335.44 119.94,485.9l32.53 128.06 -309.01 0zm465.56 628.22l382.21 0 -469.63 -1512.58 -435.07 0 -469.63 1512.58 370.01 0 87.42 -347.64 447.27 0 87.42 347.64zm633.91 0l363.91 0 0 -502.15 176.86 0c319.2,0 597.72,-158.58 597.72,-518.44 0,-374.07 -274.47,-491.99 -607.88,-491.99l-530.61 0 0 1512.58zm363.91 -788.81l0 -437.11 148.4 0c174.85,0 272.43,52.86 272.43,205.33 0,148.42 -85.39,231.78 -262.25,231.78l-158.58 0z"/>
 </g>
</svg>
