<?xml version="1.0" standalone="no"?><!DOCTYPE svg PUBLIC "-//W3C//DTD SVG 1.1//EN" "http://www.w3.org/Graphics/SVG/1.1/DTD/svg11.dtd"><svg t="1669188341806" class="icon" viewBox="0 0 1024 1024" version="1.1" xmlns="http://www.w3.org/2000/svg" p-id="7519" xmlns:xlink="http://www.w3.org/1999/xlink" width="200" height="200"><path d="M98 111.1v155.6c0 7.2 5.8 13 13 13h155.6c7.2 0 13-5.8 13-13V111.1c0-7.2-5.8-13-13-13H111c-7.2 0.1-13 5.9-13 13z m142.7 129.7H136.9V137.1h103.7v103.7zM746.4 111.1v155.6c0 7.2 5.8 13 13 13H915c7.2 0 13-5.8 13-13V111.1c0-7.2-5.8-13-13-13H759.4c-7.2 0.1-13 5.9-13 13z m142.7 129.7H785.3V137.1H889v103.7zM746.4 759.6v155.6c0 7.2 5.8 13 13 13H915c7.2 0 13-5.8 13-13V759.6c0-7.2-5.8-13-13-13H759.4c-7.2 0-13 5.8-13 13z m142.7 129.6H785.3V785.5H889v103.7zM98 759.6v155.6c0 7.2 5.8 13 13 13h155.6c7.2 0 13-5.8 13-13V759.6c0-7.2-5.8-13-13-13H111c-7.2 0-13 5.8-13 13z m142.7 129.6H136.9V785.5h103.7v103.7zM685.6 723.4L300.4 338.3c-10.1-10.1-10.1-26.6 0-36.7 10.1-10.1 26.6-10.1 36.7 0l385.2 385.2c10.1 10.1 10.1 26.6 0 36.7-10.2 10-26.6 10-36.7-0.1zM156.8 279.7h64v466.9h-64z" p-id="7520"></path><path d="M279.6 156.9h466.9v64H279.6zM279.6 805.4h466.9v64H279.6zM805.2 279.7h64v466.9h-64z" p-id="7521"></path></svg>