<?xml version="1.0" standalone="no"?><!DOCTYPE svg PUBLIC "-//W3C//DTD SVG 1.1//EN" "http://www.w3.org/Graphics/SVG/1.1/DTD/svg11.dtd"><svg t="1669188464311" class="icon" viewBox="0 0 1024 1024" version="1.1" xmlns="http://www.w3.org/2000/svg" p-id="7762" xmlns:xlink="http://www.w3.org/1999/xlink" width="200" height="200"><path d="M846.1 316.3H629.5V158.7c0-21.7-17.1-39.2-38.9-39.2H432c-21.7 0-38.9 17.5-38.9 39.2v157.6H176.5c-21.7 0-39.1 14.5-39.1 36.3l-0.3 141c0 21.7 23.8 39.6 45.6 39.6h14v196.7c0 23.7-20.3 118.1-20.3 118.1 0 21.7 18.2 39.4 40.6 39.4h588.7c22.5 0 40.6-17.6 40.6-39.4 0 0-20.3-94-20.3-118.1V533.2h13.9c21.7 0 45.3-24.2 45.3-46V352.6c0-21.8-17.3-36.3-39.1-36.3z m-64.2 511.9h-93.5V708.4c0-9.9-13.1-17.9-29.4-17.9-16.2 0-29.4 8-29.4 17.9v119.8h-78.8V708.4c0-9.9-13.2-17.9-29.6-17.9-16.4 0-29.6 8-29.6 17.9v119.8h-78.8V708.4c0-9.9-13.1-17.9-29.4-17.9-16.2 0-29.4 8-29.4 17.9v119.8H240.8c6.9-34.2 14.9-78.5 14.9-98.3V533.1H767v196.7c0 20 8 64.2 14.9 98.4z m44.3-354.1H196.3l0.2-98.7H452.3V178.6h118.2V375.4H826.3v98.7z" fill="#666666" p-id="7763"></path></svg>