<?xml version="1.0" standalone="no"?><!DOCTYPE svg PUBLIC "-//W3C//DTD SVG 1.1//EN" "http://www.w3.org/Graphics/SVG/1.1/DTD/svg11.dtd"><svg t="1668687204312" class="icon" viewBox="0 0 1024 1024" version="1.1" xmlns="http://www.w3.org/2000/svg" p-id="8871" xmlns:xlink="http://www.w3.org/1999/xlink" width="200" height="200"><path d="M512 0C229.2544 0 0 229.2544 0 512s229.2544 512 512 512 512-229.2544 512-512S794.7456 0 512 0z m307.7376 819.7312c-39.9488 39.9488-86.4896 71.3728-138.3168 93.2928-53.664 22.6752-110.6752 34.1184-169.4144 34.1184s-115.7504-11.4432-169.4144-34.2272c-51.8272-21.92-98.368-53.344-138.3168-93.2928-39.9552-39.9488-71.3728-86.4896-93.2928-138.3168-22.6752-53.5552-34.1248-110.5664-34.1248-169.3056 0-58.7456 11.4496-115.7568 34.2336-169.4208 21.92-51.8272 53.3376-98.368 93.2864-138.3168 39.9552-39.9488 86.4896-71.3728 138.3232-93.2928 53.664-22.6752 110.5664-34.2272 169.408-34.2272 58.7456 0 115.7568 11.4432 169.4208 34.2272 51.8272 21.92 98.368 53.344 138.3168 93.2928 39.9552 39.9552 71.3728 86.4896 93.2928 138.3168 22.6752 53.664 34.2272 110.5728 34.2272 169.4208 0 58.7392-11.4432 115.7504-34.2272 169.408-22.0288 51.7248-53.4464 98.2656-93.4016 138.3232zM731.6544 512c0 121.3696-98.4 219.6544-219.6544 219.6544-121.3696 0-219.6544-98.4-219.6544-219.6544 0-121.2544 98.2848-219.6544 219.6544-219.6544S731.6544 390.6304 731.6544 512z" p-id="8872"></path></svg>