<?xml version="1.0" standalone="no"?><!DOCTYPE svg PUBLIC "-//W3C//DTD SVG 1.1//EN" "http://www.w3.org/Graphics/SVG/1.1/DTD/svg11.dtd"><svg t="1668687305024" class="icon" viewBox="0 0 1024 1024" version="1.1" xmlns="http://www.w3.org/2000/svg" p-id="13779" xmlns:xlink="http://www.w3.org/1999/xlink" width="200" height="200"><path d="M971.1 913.2L837.6 779.7c147.7-177 138.7-440.6-27.5-606.8-88-88-203.3-132-318.6-132-115.3 0-230.6 44-318.6 132-176 176-176 461.2 0 637.2 88 88 203.3 132 318.6 132 102.5 0 204.9-35 288.2-104.5l133.5 133.5c8 8 18.5 11.9 29 11.9s21-4 29-11.9c15.8-15.9 15.8-42-0.1-57.9z m-740.2-161c-143.7-143.7-143.7-377.6 0-521.3 69.6-69.6 162.2-108 260.7-108s191 38.3 260.7 108c143.7 143.7 143.7 377.6 0 521.3-69.6 69.6-162.2 108-260.7 108s-191.1-38.4-260.7-108z" p-id="13780"></path></svg>