<?xml version="1.0" standalone="no"?><!DOCTYPE svg PUBLIC "-//W3C//DTD SVG 1.1//EN" "http://www.w3.org/Graphics/SVG/1.1/DTD/svg11.dtd"><svg t="1668687242061" class="icon" viewBox="0 0 1024 1024" version="1.1" xmlns="http://www.w3.org/2000/svg" p-id="10201" xmlns:xlink="http://www.w3.org/1999/xlink" width="200" height="200"><path d="M864 64a96 96 0 0 1 32 186.496v523.008A96 96 0 1 1 773.568 896H250.496A96 96 0 1 1 128 773.44v-522.88A96 96 0 1 1 250.56 128h522.88A96 96 0 0 1 864 64z m-704 768a32 32 0 1 0 0 64 32 32 0 0 0 0-64z m704 0a32 32 0 1 0 0 64 32 32 0 0 0 0-64zM832 250.56A96.256 96.256 0 0 1 773.504 192H250.496c-9.6 27.2-31.232 48.832-58.432 58.432v523.008c27.264 9.6 48.832 31.232 58.496 58.496h522.88c9.6-27.264 31.296-48.896 58.56-58.56v-522.88z m-474.496 67.2l250.432 250.432L608 416h64v256h-256v-64h141.248L312.256 363.008l45.248-45.312zM160 128a32 32 0 1 0 0 64 32 32 0 0 0 0-64z m704 0a32 32 0 1 0 0 64 32 32 0 0 0 0-64z" fill="#2C374D" p-id="10202"></path></svg>