<svg xmlns="http://www.w3.org/2000/svg" width="114.027" height="118.183" viewBox="0 0 114.027 118.183"><defs><style>.a{fill:#00e4ff;}</style></defs><g transform="translate(266 -426.06)"><g transform="translate(-266 426.06)"><path class="a" d="M-214.082,471.077h8.669l-13.6-20.134h6.59l-13.541-24.764v-.119l-.06.06v.06l-13.541,24.764h6.593l-13.6,20.134h8.671l-15.145,18.589h10.395l-15.56,20.727h28.566l-3.861,25.892h15.085l-3.387-25.892,6-9.861,7.484-9.679-.892-1.187h10.392Zm0,0" transform="translate(278.401 -426.06)"/><path class="a" d="M-181.431,456.418h5.287l-10.869-18.529v0l-4.929,8.373,6.295,8.731h-6.295l1.247,1.425h.477l-.238.3,12.947,13.6h6.948Zm-56.241,19.836h-10.392l13.66-16.746-.179-.3h.415l1.249-1.545h-8.612l6.3-9.322-4.929-8.969v0l-10.869,19.835h5.284l-10.866,16.1h6.948l-12.116,14.847h8.314L-266,506.782h19.9l-1.6,10.926h15.085l-1.425-10.926h10.988l1.6-9.741h-31.772Zm80.412,38.961a26.077,26.077,0,0,0,5.287-15.8,26.233,26.233,0,0,0-26.19-26.19,26.189,26.189,0,0,0-19.955,9.265l15.2,15.261a8.28,8.28,0,0,1-1.721,6.119,11.62,11.62,0,0,0,.415-3.506,8.135,8.135,0,0,0-4.157-7.067h-.179a.218.218,0,0,0-.06.179c0,.06,1.249,5.7-.948,8.314-1.9,2.257-3.742,6.178-2.734,9.861.832,3.027,3.447,5.4,7.723,6.888a30.694,30.694,0,0,0,3.325.832c.06,0,.119,0,.179-.119,0-.06,0-.179-.06-.179-2.2-.948-4.514-2.97-2.791-7.007,1.6-3.5,1.306-5.284,1.008-6.056a3.683,3.683,0,0,1,2.079,3.859.218.218,0,0,0,.06.179.112.112,0,0,0,.179,0c.06-.059,3.384-2.791,3.384-6.533l2.258,2.257a9.516,9.516,0,0,1-.534,3.149,4.424,4.424,0,0,0,1.068,3.919.112.112,0,0,0,.179,0,.219.219,0,0,0,.06-.179c-.06-.119-1.187-3.146,1.127-4.929l.179.179c-.119.951-.239,2.672.593,3.623a5.677,5.677,0,0,1,1.368,4.216,4,4,0,0,1-1.962,2.791.219.219,0,0,0-.06.179c.06.06.119.119.179.06,2.138-.713,5.463-3.268,7.306-5.346l2.91,2.91c-.358.3-2.019,1.9-2.436,2.138a23.828,23.828,0,0,1-13.243,4.037c-12.056,0-23.1-11.045-23.1-23.1,0-4.515,1.425-10.216,4.038-13.9v-.06l-1.84-1.84a26.077,26.077,0,0,0-5.286,15.8,26.233,26.233,0,0,0,26.192,26.19,26.1,26.1,0,0,0,19.955-9.265l-5.761-5.761a12.439,12.439,0,0,0-1.07-7.365c-4.452-9.679-1.6-12.768-1.542-12.828a.148.148,0,0,0-.059-.236c-.06,0-.06-.06-.119,0-.059,0-6.3,2.612-5.525,8.373-1.721-1.545-9.679-9.384-4.81-18.649.06-.06,0-.116,0-.177a.22.22,0,0,0-.179-.059,12.375,12.375,0,0,0-4.571,3.8,18.612,18.612,0,0,0-2.732,8.552l-9.741-9.739c.536-.474,2.555-2.2,2.91-2.493a23.811,23.811,0,0,1,13.245-4.04c12.056,0,23.754,11.7,23.754,23.756a26.161,26.161,0,0,1-4.691,13.9" transform="translate(266 -407.423)"/></g></g></svg>