<svg xmlns="http://www.w3.org/2000/svg" width="117.752" height="117.612" viewBox="0 0 117.752 117.612"><defs><style>.a{fill:#fff;}</style></defs><g transform="translate(-551 -132.071)"><path class="a" d="M676.688,745.9,663.59,759q-1.542-1.425-2.98-2.957l3.4-3.4,3.749-3.749,3.247-3.247a3.372,3.372,0,0,0,1.554.272Q674.624,745.9,676.688,745.9Z" transform="translate(-93.829 -525.231)"/><path class="a" d="M923,521.083a16.549,16.549,0,0,0,6.955-1.623L919.709,529.7q-.792-2.179-1.579-4.358l4.292-4.292A3.872,3.872,0,0,0,923,521.083Z" transform="translate(-314.272 -331.615)"/><path class="a" d="M1037.394,243.186l-28.978,28.978a15.424,15.424,0,0,0-8.286,2.348l26.931-26.931,7.351-7.351Q1035.956,241.653,1037.394,243.186Z" transform="translate(-384.466 -92.587)"/><path class="a" d="M652.927,150.6q-1.436-1.531-2.982-2.956A59.236,59.236,0,0,0,610.8,132.083c-32.3-.68-59.256,25.61-59.791,58.162,0,.16,0,.321-.007.482v.729a57.716,57.716,0,0,0,15.781,39.351q1.436,1.529,2.98,2.957a59.908,59.908,0,0,0,39.789,15.911c31.914.527,59.125-25.81,59.2-58.356A58.834,58.834,0,0,0,652.927,150.6Zm-97.065,40.194a53.98,53.98,0,0,1,90.491-39.557l-3.759,3.759a47.743,47.743,0,0,0-33.159-13.043,48.725,48.725,0,0,0-35.5,81.7l-3.749,3.749A53.453,53.453,0,0,1,555.862,190.792ZM631.616,182c3.683,2.26,7.428,3.038,11.512,1.186a2.308,2.308,0,0,1,3.356,1.283,2.5,2.5,0,0,1-1.235,3.445,12.148,12.148,0,0,1-6.518,1.471,15.932,15.932,0,0,1-9.459-2.8,9.977,9.977,0,0,0-11.414.049,19.383,19.383,0,0,1-2.177,1.214,16.548,16.548,0,0,1-6.955,1.623,3.855,3.855,0,0,1-.576-.029c-1.238-.16-1.794-.96-1.824-2.286-.035-1.533.251-3,2.213-2.92a12.547,12.547,0,0,0,7.01-2.24c.039-.023.076-.046.115-.068a15.424,15.424,0,0,1,8.286-2.348A15.244,15.244,0,0,1,631.616,182Zm14.639,21.7a14.8,14.8,0,0,1-7.2,1.679,13.955,13.955,0,0,1-7.837-2.366c-4.6-3.016-9.057-2.982-13.551.153a14.419,14.419,0,0,1-4.466,1.852c-.894.249-2.024.645-2.329-.707-.312-1.4-1.116-3.6.416-4.064,3.759-1.143,6.727-3.967,10.769-4.473a14.946,14.946,0,0,1,10.131,1.9c3.876,2.455,7.746,3.281,12.052,1.4,1.484-.652,2.511.062,3.107,1.366A2.315,2.315,0,0,1,646.255,203.7Zm-.929,15.971a12.274,12.274,0,0,1-5.805,1.532c-3.717.083-6.65-.547-9.265-2.3-4.016-2.7-8.127-3.087-12.357-.59-1.643.972-2.4-.145-3.08-1.227-.727-1.172-.978-2.324.583-3.245,5.062-3,10.284-3.454,15.374-.472,4.085,2.393,8.065,3.641,12.622,1.581a2.1,2.1,0,0,1,2.995,1.248A2.465,2.465,0,0,1,645.327,219.669Zm-43.352.989q-5.466,0-10.936,0-4.09,0-8.179.012-2.062,0-4.126.014a3.372,3.372,0,0,1-1.554-.272c-.608-.311-.9-.93-.9-2.052q.063-27.721,0-55.442c-.007-1.8.714-2.386,2.42-2.358,3.725.062,7.448.084,11.172-.013a2.434,2.434,0,0,1,2.662,1.913q5.654,15.638,11.325,31.273.788,2.179,1.579,4.358,3.823,10.548,7.649,21.094a1.87,1.87,0,0,1,.118,1.477h-11.23Zm7.97,24.078a54.028,54.028,0,0,1-36.79-14.366l3.753-3.753a48.462,48.462,0,0,0,81.118-36A48.764,48.764,0,0,0,645.528,158l3.807-3.807a53.755,53.755,0,0,1-39.39,90.546Z" transform="translate(0 0)"/><path class="a" d="M652.927,150.6q-1.436-1.531-2.982-2.956A59.236,59.236,0,0,0,610.8,132.083c-32.3-.68-59.256,25.61-59.791,58.162,0,.16,0,.321-.007.482v.729a57.716,57.716,0,0,0,15.781,39.351q1.436,1.529,2.98,2.957a59.908,59.908,0,0,0,39.789,15.911c31.914.527,59.125-25.81,59.2-58.356A58.834,58.834,0,0,0,652.927,150.6Zm-97.065,40.194a53.98,53.98,0,0,1,90.491-39.557l-3.759,3.759a47.743,47.743,0,0,0-33.159-13.043,48.725,48.725,0,0,0-35.5,81.7l-3.749,3.749A53.453,53.453,0,0,1,555.862,190.792ZM631.616,182c3.683,2.26,7.428,3.038,11.512,1.186a2.308,2.308,0,0,1,3.356,1.283,2.5,2.5,0,0,1-1.235,3.445,12.148,12.148,0,0,1-6.518,1.471,15.932,15.932,0,0,1-9.459-2.8,9.977,9.977,0,0,0-11.414.049,19.383,19.383,0,0,1-2.177,1.214,16.548,16.548,0,0,1-6.955,1.623,3.855,3.855,0,0,1-.576-.029c-1.238-.16-1.794-.96-1.824-2.286-.035-1.533.251-3,2.213-2.92a12.547,12.547,0,0,0,7.01-2.24c.039-.023.076-.046.115-.068a15.424,15.424,0,0,1,8.286-2.348A15.244,15.244,0,0,1,631.616,182Zm14.639,21.7a14.8,14.8,0,0,1-7.2,1.679,13.955,13.955,0,0,1-7.837-2.366c-4.6-3.016-9.057-2.982-13.551.153a14.419,14.419,0,0,1-4.466,1.852c-.894.249-2.024.645-2.329-.707-.312-1.4-1.116-3.6.416-4.064,3.759-1.143,6.727-3.967,10.769-4.473a14.946,14.946,0,0,1,10.131,1.9c3.876,2.455,7.746,3.281,12.052,1.4,1.484-.652,2.511.062,3.107,1.366A2.315,2.315,0,0,1,646.255,203.7Zm-.929,15.971a12.274,12.274,0,0,1-5.805,1.532c-3.717.083-6.65-.547-9.265-2.3-4.016-2.7-8.127-3.087-12.357-.59-1.643.972-2.4-.145-3.08-1.227-.727-1.172-.978-2.324.583-3.245,5.062-3,10.284-3.454,15.374-.472,4.085,2.393,8.065,3.641,12.622,1.581a2.1,2.1,0,0,1,2.995,1.248A2.465,2.465,0,0,1,645.327,219.669Zm-43.352.989q-5.466,0-10.936,0-4.09,0-8.179.012-2.062,0-4.126.014a3.372,3.372,0,0,1-1.554-.272c-.608-.311-.9-.93-.9-2.052q.063-27.721,0-55.442c-.007-1.8.714-2.386,2.42-2.358,3.725.062,7.448.084,11.172-.013a2.434,2.434,0,0,1,2.662,1.913q5.654,15.638,11.325,31.273.788,2.179,1.579,4.358,3.823,10.548,7.649,21.094a1.87,1.87,0,0,1,.118,1.477h-11.23Zm7.97,24.078a54.028,54.028,0,0,1-36.79-14.366l3.753-3.753a48.462,48.462,0,0,0,81.118-36A48.764,48.764,0,0,0,645.528,158l3.807-3.807a53.755,53.755,0,0,1-39.39,90.546Z" transform="translate(0 0)"/><path class="a" d="M705.424,216.736l3.807-3.807q-1.436-1.535-2.982-2.956l-3.759,3.759a47.744,47.744,0,0,0-33.159-13.043,48.725,48.725,0,0,0-35.5,81.7l-3.749,3.749q1.425,1.54,2.972,2.966l3.753-3.753a48.462,48.462,0,0,0,81.119-36A48.764,48.764,0,0,0,705.424,216.736Zm-36.99,26.235a12.547,12.547,0,0,0,7.01-2.24c.039-.023.076-.046.115-.068a15.424,15.424,0,0,1,8.286-2.348,15.244,15.244,0,0,1,7.667,2.423c3.683,2.26,7.428,3.038,11.512,1.186a2.308,2.308,0,0,1,3.356,1.283,2.5,2.5,0,0,1-1.235,3.445,12.148,12.148,0,0,1-6.518,1.471,15.932,15.932,0,0,1-9.459-2.8,9.977,9.977,0,0,0-11.414.049,19.379,19.379,0,0,1-2.177,1.214,16.548,16.548,0,0,1-6.955,1.623,3.857,3.857,0,0,1-.576-.029c-1.238-.16-1.794-.96-1.824-2.286C666.187,244.358,666.472,242.895,668.434,242.971ZM673.1,279.4H661.87q-5.466,0-10.936,0-4.09,0-8.179.012-2.062,0-4.126.014a3.372,3.372,0,0,1-1.553-.272c-.608-.311-.9-.93-.9-2.052q.063-27.721,0-55.442c-.007-1.8.714-2.386,2.42-2.358,3.725.062,7.448.084,11.172-.013a2.434,2.434,0,0,1,2.662,1.913q5.654,15.638,11.325,31.273.788,2.179,1.579,4.358,3.823,10.548,7.649,21.094A1.87,1.87,0,0,1,673.1,279.4Zm32.122-.991a12.275,12.275,0,0,1-5.805,1.532c-3.717.083-6.65-.547-9.265-2.3-4.016-2.7-8.127-3.087-12.357-.59-1.643.972-2.4-.145-3.08-1.227-.727-1.172-.978-2.324.583-3.245,5.062-3,10.284-3.454,15.374-.472,4.085,2.393,8.065,3.641,12.622,1.581a2.1,2.1,0,0,1,2.995,1.248A2.465,2.465,0,0,1,705.223,278.408Zm.929-15.971a14.8,14.8,0,0,1-7.2,1.679,13.956,13.956,0,0,1-7.837-2.366c-4.6-3.016-9.057-2.982-13.551.153a14.42,14.42,0,0,1-4.466,1.852c-.894.249-2.024.645-2.33-.707-.312-1.4-1.116-3.6.416-4.064,3.759-1.143,6.727-3.966,10.769-4.473a14.946,14.946,0,0,1,10.132,1.9c3.876,2.455,7.746,3.281,12.052,1.4,1.484-.652,2.511.062,3.107,1.366A2.315,2.315,0,0,1,706.151,262.437Z" transform="translate(-59.896 -58.739)"/><path class="a" d="M839.917,754.987c-.1-2.538-.045-5.091-.037-7.636q-5.466,0-10.936,0c0,2.584,0,5.167-.024,7.75-.013,1.263.458,1.617,1.651,1.581,2.53-.069,5.075-.082,7.606.007C839.48,756.728,839.966,756.361,839.917,754.987Z" transform="translate(-237.905 -526.692)"/><path class="a" d="M705.424,216.736q-1.4-1.566-2.934-3a47.744,47.744,0,0,0-33.159-13.043,48.725,48.725,0,0,0-35.5,81.7q1.423,1.544,2.976,2.962a48.462,48.462,0,0,0,81.119-36A48.764,48.764,0,0,0,705.424,216.736Zm-36.99,26.235a12.547,12.547,0,0,0,7.01-2.24c.039-.023.076-.046.115-.068a15.424,15.424,0,0,1,8.286-2.348,15.244,15.244,0,0,1,7.667,2.423c3.683,2.26,7.428,3.038,11.512,1.186a2.308,2.308,0,0,1,3.356,1.283,2.5,2.5,0,0,1-1.235,3.445,12.148,12.148,0,0,1-6.518,1.471,15.932,15.932,0,0,1-9.459-2.8,9.977,9.977,0,0,0-11.414.049,19.379,19.379,0,0,1-2.177,1.214,16.548,16.548,0,0,1-6.955,1.623,3.857,3.857,0,0,1-.576-.029c-1.238-.16-1.794-.96-1.824-2.286C666.187,244.358,666.472,242.895,668.434,242.971ZM673.1,279.4H661.87q-5.466,0-10.936,0-4.09,0-8.179.012-2.062,0-4.126.014a3.372,3.372,0,0,1-1.553-.272c-.608-.311-.9-.93-.9-2.052q.063-27.721,0-55.442c-.007-1.8.714-2.386,2.42-2.358,3.725.062,7.448.084,11.172-.013a2.434,2.434,0,0,1,2.662,1.913q5.654,15.638,11.325,31.273.788,2.179,1.579,4.358,3.823,10.548,7.649,21.094A1.87,1.87,0,0,1,673.1,279.4Zm32.122-.991a12.275,12.275,0,0,1-5.805,1.532c-3.717.083-6.65-.547-9.265-2.3-4.016-2.7-8.127-3.087-12.357-.59-1.643.972-2.4-.145-3.08-1.227-.727-1.172-.978-2.324.583-3.245,5.062-3,10.284-3.454,15.374-.472,4.085,2.393,8.065,3.641,12.622,1.581a2.1,2.1,0,0,1,2.995,1.248A2.465,2.465,0,0,1,705.223,278.408Zm.929-15.971a14.8,14.8,0,0,1-7.2,1.679,13.956,13.956,0,0,1-7.837-2.366c-4.6-3.016-9.057-2.982-13.551.153a14.42,14.42,0,0,1-4.466,1.852c-.894.249-2.024.645-2.33-.707-.312-1.4-1.116-3.6.416-4.064,3.759-1.143,6.727-3.966,10.769-4.473a14.946,14.946,0,0,1,10.132,1.9c3.876,2.455,7.746,3.281,12.052,1.4,1.484-.652,2.511.062,3.107,1.366A2.315,2.315,0,0,1,706.151,262.437Z" transform="translate(-59.896 -58.739)"/><path class="a" d="M1296.609,540.557" transform="translate(-638.26 -349.675)"/></g></svg>