<svg xmlns="http://www.w3.org/2000/svg" width="281.875" height="353.764" viewBox="0 0 281.875 353.764"><defs><style>.a{fill:#1cc7db;}.b{fill:#00e4ff;}</style></defs><g transform="translate(-203.188 -352.719)"><path class="a" d="M257.73,3354.071l-20.31-20.049V3052.293l20.31-20.049h210.8l20.31,20.049v281.729l-20.31,20.049Z" transform="translate(-19.42 -2663.245)"/><g transform="translate(431.968 352.719)"><path class="b" d="M774.947,3026.235h-31.8l3.8,2.9h20.288l25.211,19.238v309.491L767.234,3377.1H746.946l-3.8,2.9h31.8l21.3-16.251V3042.485Z" transform="translate(-743.148 -3026.235)"/><path class="b" d="M818.213,3153.28l4.017,4.017,5.1,5.1,7.938,0-9.069-9.068-4.018-4.017-9.069-9.069,0,7.938Z" transform="translate(-790.076 -3132.339)"/><path class="b" d="M822.231,3618.037l-4.017,4.018-5.1,5.1,0,7.938,9.069-9.068L826.2,3622l9.069-9.068-7.938,0Z" transform="translate(-790.077 -3289.232)"/></g><g transform="translate(203.188 352.719)"><path class="b" d="M349.489,3153.33l-9.069,9.069,7.938,0,5.1-5.1,4.017-4.017,5.1-5.1,0-7.938-9.069,9.069Z" transform="translate(-332.515 -3132.34)"/><path class="b" d="M357.473,3622.055l-4.017-4.018-5.1-5.1-7.938,0,9.069,9.068,4.017,4.018,9.069,9.068,0-7.938Z" transform="translate(-332.515 -3289.233)"/><path class="b" d="M320.209,3205.024V3048.371l25.211-19.238h20.288l3.8-2.9h-31.8l-21.3,16.25v321.262l21.3,16.251h31.8l-3.8-2.9H345.42l-25.211-19.238V3205.024Z" transform="translate(-316.411 -3026.234)"/></g></g></svg>