<svg xmlns="http://www.w3.org/2000/svg" width="133.398" height="117" viewBox="0 0 133.398 117"><defs><style>.a{fill:#fff;}</style></defs><g transform="translate(-555.83 -195.241)"><path class="a" d="M641.316,295.726a3.138,3.138,0,0,1,.034.445h.007A2.42,2.42,0,0,0,641.316,295.726Z" transform="translate(10.905 12.818)"/><path class="a" d="M656.542,250.26" transform="translate(12.847 7.018)"/><path class="a" d="M656.446,238.434" transform="translate(12.835 5.51)"/><path class="a" d="M624.045,219.205" transform="translate(8.702 3.057)"/><path class="a" d="M671.97,307.1a3.194,3.194,0,0,1-2.926-1.842,118.906,118.906,0,0,1-12.576-53.121V242.054H634.028a3.252,3.252,0,1,1,0-6.5h25.693a3.194,3.194,0,0,1,3.253,3.252v13.335a113.478,113.478,0,0,0,11.816,50.193,3.3,3.3,0,0,1-1.409,4.337,2.18,2.18,0,0,1-1.409.433Z" transform="translate(9.56 5.142)"/><path class="a" d="M561.551,299.005" transform="translate(0.73 13.236)"/><path class="a" d="M638.467,299.005" transform="translate(10.541 13.236)"/><path class="a" d="M671.548,203.616a1.38,1.38,0,0,1-.651-.108,1.539,1.539,0,0,1-.649-.216c-.218-.108-.326-.217-.542-.325a1.893,1.893,0,0,1-.542-.434l-.434-.433c-.108-.218-.217-.326-.325-.542s-.108-.434-.216-.651c0-.216-.108-.434-.108-.651a1.38,1.38,0,0,1,.108-.651,1.548,1.548,0,0,1,.216-.651c.108-.216.217-.325.325-.541a.849.849,0,0,1,.434-.434c.216-.108.325-.325.542-.434s.325-.215.542-.325.433-.108.649-.216a3.212,3.212,0,0,1,2.927.867l.434.433c.108.218.216.326.325.542s.108.434.218.651c0,.217.108.434.108.651a2.953,2.953,0,0,1-.977,2.277,2.871,2.871,0,0,1-2.385,1.192Z" transform="translate(14.319 0.216)"/><path class="a" d="M661.4,206.11a10.919,10.919,0,0,1-7.7-3.144,4.447,4.447,0,0,0-6.287,0,10.929,10.929,0,0,1-15.395,0,4.447,4.447,0,0,0-6.287,0,3.22,3.22,0,0,1-4.553-4.554,10.929,10.929,0,0,1,15.395,0,4.447,4.447,0,0,0,6.287,0,10.929,10.929,0,0,1,15.395,0,4.447,4.447,0,0,0,6.287,0,3.22,3.22,0,0,1,4.553,4.554,10.919,10.919,0,0,1-7.7,3.144Z" transform="translate(8.211)"/><path class="a" d="M659.9,225.339a10.917,10.917,0,0,1-7.7-3.144,4.449,4.449,0,0,0-6.288,0,3.22,3.22,0,0,1-4.552-4.554,10.928,10.928,0,0,1,15.393,0,4.447,4.447,0,0,0,6.287,0,3.22,3.22,0,1,1,4.553,4.554,10.917,10.917,0,0,1-7.7,3.144Z" transform="translate(10.787 2.453)"/><path class="a" d="M588.549,214.437a3.056,3.056,0,0,1-1.626-.434,3.318,3.318,0,0,1-1.192-4.444A24.947,24.947,0,0,1,607.3,197.092h9.758a3.252,3.252,0,1,1,0,6.5H607.3a18.577,18.577,0,0,0-15.936,9.216,3.268,3.268,0,0,1-2.819,1.626Z" transform="translate(3.761 0.236)"/><path class="a" d="M659.363,253.88H637.681a3.252,3.252,0,0,1,0-6.5h21.682a3.194,3.194,0,0,1,3.252,3.253,3.261,3.261,0,0,1-3.252,3.252Z" transform="translate(10.026 6.65)"/><path class="a" d="M579.878,255.142v-1.424C579.871,254.109,579.868,254.587,579.878,255.142Z" transform="translate(3.067 7.459)"/><path class="a" d="M648.973,305.855v0a3.319,3.319,0,0,0-.284-.961,151.688,151.688,0,0,1-14.946-50.3q-.77-6.642-.942-13.335-.047-1.9-.048-3.794V219.573a3.192,3.192,0,0,0-3.084-3.249c-.042,0-.085,0-.129,0h-54.2c-.057,0-.115,0-.171,0a3.19,3.19,0,0,0-3.081,3.249v17.888a151.541,151.541,0,0,1-15.937,67.43,3.374,3.374,0,0,0-.309,1.2.576.576,0,0,0,0,.063c0,.048-.006.1-.006.149v.024c.016,1.648,1.594,2.944,3.763,3.188h0a6.652,6.652,0,0,0,.743.041H644.5a6.65,6.65,0,0,0,.743-.041c2.031-.227,3.544-1.376,3.746-2.871,0-.03.007-.061.008-.091.006-.081.007-.165.007-.249A3.139,3.139,0,0,0,648.973,305.855Zm-66.029-47.367c.017-.773.054-1.2.054-1.2a90.693,90.693,0,0,0,19.385-8.646h.011a98.707,98.707,0,0,0,19.388,8.646s2.156,25.24-19.335,36.744h-.121c-17.264-9.244-19.263-27.357-19.383-34.115C582.934,259.358,582.938,258.88,582.944,258.488Z" transform="translate(0 2.689)"/><path class="a" d="M641.343,296.421c.006-.081.007-.165.007-.249a3.138,3.138,0,0,0-.034-.445,2.42,2.42,0,0,1,.041.445A2.03,2.03,0,0,1,641.343,296.421Z" transform="translate(10.905 12.818)"/><path class="a" d="M674.1,299.741H651.334a3.252,3.252,0,1,1,0-6.5H674.1a3.252,3.252,0,1,1,0,6.5Z" transform="translate(11.768 12.5)"/><path class="a" d="M671.156,299.005" transform="translate(14.711 13.236)"/><path class="a" d="M579.878,255.142v-1.424C579.871,254.109,579.868,254.587,579.878,255.142Z" transform="translate(3.067 7.459)"/></g></svg>